<?xml version="1.0" encoding="utf-8"?>
<!-- Generator: Adobe Illustrator 17.0.2, SVG Export Plug-In . SVG Version: 6.00 Build 0)  -->
<!DOCTYPE svg PUBLIC "-//W3C//DTD SVG 1.1//EN" "http://www.w3.org/Graphics/SVG/1.1/DTD/svg11.dtd">
<svg version="1.1" id="Layer_1" xmlns="http://www.w3.org/2000/svg" xmlns:xlink="http://www.w3.org/1999/xlink" x="0px" y="0px"
	 width="504.47px" height="84px" viewBox="0 0 504.47 84" enable-background="new 0 0 504.47 84" xml:space="preserve">
<path fill="#F4F4F4" d="M107.312,74.546c-1.709,2.02-3.902,3.709-6.581,5.067c-2.679,1.357-5.728,2.038-9.144,2.038
	c-3.34,0-6.464-0.661-9.376-1.981s-5.436-3.203-7.571-5.649c-2.137-2.446-3.826-5.396-5.067-8.852
	c-1.243-3.454-1.864-7.356-1.864-11.706c0-4.892,0.873-9.182,2.621-12.871c1.747-3.687,3.998-6.736,6.756-9.144
	c2.756-2.406,5.824-4.211,9.202-5.416c3.378-1.203,6.697-1.805,9.959-1.805c2.639,0,4.697,0.175,6.173,0.524
	c1.474,0.349,2.988,0.797,4.543,1.339V2.329h16.656V80.02h-15.608L107.312,74.546z M106.963,40.418
	c-1.165-0.699-2.428-1.203-3.786-1.514c-1.359-0.309-3.048-0.466-5.067-0.466c-4.271,0-7.591,1.438-9.959,4.31
	c-2.37,2.874-3.553,6.563-3.553,11.066c0,3.96,0.97,7.203,2.912,9.726c1.94,2.525,4.852,3.786,8.736,3.786
	c1.864,0,3.474-0.33,4.834-0.99c1.358-0.659,2.484-1.532,3.378-2.621c0.892-1.087,1.532-2.368,1.922-3.844
	c0.387-1.474,0.582-2.988,0.582-4.542V40.418z"/>
<path fill="#F4F4F4" d="M167.646,74.895c-1.864,2.175-4.213,3.844-7.047,5.008c-2.836,1.165-5.998,1.747-9.493,1.747
	c-1.942,0-3.98-0.273-6.115-0.815c-2.137-0.545-4.117-1.456-5.94-2.737c-1.826-1.282-3.34-3.009-4.543-5.183
	c-1.205-2.173-1.805-4.892-1.805-8.154c0-3.183,0.641-6.017,1.922-8.503c1.281-2.484,3.047-4.561,5.3-6.232
	c2.252-1.669,4.91-2.93,7.979-3.785c3.067-0.853,6.386-1.281,9.959-1.281c1.94,0,3.902,0.04,5.882,0.117
	c1.98,0.078,3.28,0.195,3.902,0.349v-1.165c0-1.398-0.291-2.581-0.874-3.553c-0.582-0.97-1.359-1.785-2.329-2.446
	c-0.972-0.659-2.078-1.125-3.32-1.398c-1.243-0.271-2.563-0.408-3.96-0.408c-3.727,0-6.814,0.466-9.26,1.398
	c-2.446,0.932-4.524,1.98-6.232,3.145l-6.872-10.25c1.165-0.853,2.484-1.707,3.96-2.563c1.474-0.853,3.222-1.631,5.242-2.329
	c2.018-0.699,4.29-1.261,6.814-1.689c2.523-0.426,5.416-0.641,8.678-0.641c8.308,0,14.444,2.233,18.404,6.698
	c3.96,4.466,5.941,10.465,5.941,17.996V80.02h-15.725L167.646,74.895z M167.646,55.909c-0.39-0.076-1.126-0.175-2.213-0.291
	c-1.088-0.117-2.33-0.175-3.727-0.175c-4.659,0-7.961,0.66-9.9,1.98c-1.942,1.321-2.912,3.185-2.912,5.591
	c0,4.504,2.717,6.756,8.153,6.756c1.319,0,2.621-0.213,3.902-0.641c1.281-0.426,2.406-1.028,3.378-1.805
	c0.97-0.775,1.766-1.747,2.388-2.912c0.62-1.165,0.932-2.522,0.932-4.077V55.909z"/>
<path fill="#F4F4F4" d="M199.299,38.554h-8.619V25.392h8.619V8.852h16.773v16.54h14.094v13.162h-14.094v21.549
	c0,2.641,0.524,4.679,1.572,6.115c1.049,1.438,2.697,2.155,4.951,2.155c1.707,0,3.183-0.291,4.426-0.874
	c1.241-0.582,2.406-1.261,3.494-2.038l6.756,10.25c-5.282,4.193-11.028,6.29-17.239,6.29c-3.884,0-7.145-0.564-9.784-1.688
	c-2.641-1.125-4.776-2.679-6.407-4.659c-1.631-1.98-2.795-4.368-3.494-7.163c-0.699-2.796-1.048-5.9-1.048-9.318V38.554z"/>
<path fill="#F4F4F4" d="M275.825,74.895c-1.863,2.175-4.213,3.844-7.047,5.008c-2.836,1.165-5.999,1.747-9.493,1.747
	c-1.942,0-3.98-0.273-6.115-0.815c-2.137-0.545-4.116-1.456-5.941-2.737c-1.825-1.282-3.34-3.009-4.542-5.183
	c-1.205-2.173-1.805-4.892-1.805-8.154c0-3.183,0.641-6.017,1.922-8.503c1.281-2.484,3.047-4.561,5.3-6.232
	c2.252-1.669,4.91-2.93,7.979-3.785c3.067-0.853,6.386-1.281,9.959-1.281c1.94,0,3.902,0.04,5.882,0.117
	c1.981,0.078,3.279,0.195,3.902,0.349v-1.165c0-1.398-0.291-2.581-0.874-3.553c-0.582-0.97-1.359-1.785-2.33-2.446
	c-0.972-0.659-2.078-1.125-3.319-1.398c-1.243-0.271-2.562-0.408-3.96-0.408c-3.728,0-6.814,0.466-9.261,1.398
	c-2.446,0.932-4.524,1.98-6.232,3.145l-6.872-10.25c1.165-0.853,2.484-1.707,3.96-2.563c1.474-0.853,3.222-1.631,5.242-2.329
	c2.018-0.699,4.29-1.261,6.814-1.689c2.522-0.426,5.416-0.641,8.678-0.641c8.309,0,14.443,2.233,18.404,6.698
	c3.96,4.466,5.941,10.465,5.941,17.996V80.02h-15.725L275.825,74.895z M275.825,55.909c-0.39-0.076-1.127-0.175-2.213-0.291
	c-1.088-0.117-2.33-0.175-3.727-0.175c-4.659,0-7.96,0.66-9.9,1.98c-1.942,1.321-2.912,3.185-2.912,5.591
	c0,4.504,2.717,6.756,8.154,6.756c1.319,0,2.62-0.213,3.902-0.641c1.281-0.426,2.406-1.028,3.378-1.805
	c0.97-0.775,1.765-1.747,2.387-2.912c0.621-1.165,0.932-2.522,0.932-4.077V55.909z"/>
<path fill="#D6D6D6" d="M351.506,72.565c-2.407,2.719-5.377,4.912-8.91,6.581c-3.535,1.669-7.63,2.505-12.288,2.505
	c-4.35,0-8.29-0.719-11.823-2.155c-3.535-1.436-6.523-3.416-8.969-5.941c-2.446-2.523-4.33-5.551-5.649-9.085
	c-1.322-3.533-1.98-7.396-1.98-11.59c0-3.961,0.699-7.688,2.097-11.182c1.398-3.494,3.358-6.541,5.882-9.144
	c2.522-2.601,5.513-4.659,8.968-6.173c3.454-1.514,7.28-2.271,11.474-2.271c4.581,0,8.619,0.815,12.113,2.446
	c3.494,1.631,6.483,3.844,8.969,6.639l-6.873,6.639c-1.631-2.018-3.611-3.611-5.94-4.775c-2.33-1.165-5.087-1.747-8.27-1.747
	c-2.796,0-5.3,0.524-7.513,1.573c-2.213,1.048-4.077,2.486-5.591,4.31c-1.514,1.826-2.68,3.922-3.495,6.29
	c-0.815,2.37-1.223,4.834-1.223,7.396c0,2.486,0.407,4.912,1.223,7.28c0.815,2.37,1.981,4.466,3.495,6.29
	c1.514,1.826,3.378,3.282,5.591,4.368c2.213,1.088,4.717,1.631,7.513,1.631c3.183,0,6.036-0.601,8.561-1.805
	c2.522-1.203,4.6-2.814,6.231-4.834L351.506,72.565z"/>
<path fill="#D6D6D6" d="M361.873,2.329h10.483V80.02h-10.483V2.329z"/>
<path fill="#D6D6D6" d="M436.185,72.1c-0.622,0.699-1.554,1.592-2.795,2.679c-1.243,1.088-2.854,2.137-4.834,3.145
	c-1.981,1.01-4.31,1.883-6.989,2.62c-2.679,0.737-5.727,1.107-9.143,1.107c-4.193,0-8.037-0.699-11.531-2.097
	s-6.485-3.378-8.969-5.941c-2.486-2.563-4.408-5.629-5.766-9.202c-1.359-3.571-2.038-7.531-2.038-11.881
	c0-3.961,0.658-7.668,1.98-11.124c1.319-3.454,3.183-6.445,5.591-8.969c2.406-2.523,5.26-4.523,8.562-5.999
	c3.299-1.474,6.93-2.213,10.891-2.213c4.659,0,8.658,0.894,11.997,2.679c3.338,1.787,6.075,4.155,8.212,7.105
	c2.135,2.952,3.707,6.33,4.717,10.134c1.009,3.805,1.514,7.766,1.514,11.881h-42.747c0.077,2.408,0.601,4.621,1.573,6.639
	c0.97,2.02,2.271,3.767,3.902,5.241c1.63,1.476,3.494,2.641,5.591,3.495c2.097,0.855,4.31,1.281,6.639,1.281
	c4.581,0,8.346-0.775,11.298-2.329c2.95-1.553,5.085-3.067,6.406-4.543L436.185,72.1z M426.75,48.221
	c-0.311-4.193-1.787-7.764-4.426-10.716c-2.64-2.95-6.368-4.426-11.181-4.426c-2.486,0-4.718,0.428-6.698,1.281
	c-1.98,0.856-3.669,1.98-5.067,3.378s-2.486,3.01-3.262,4.834c-0.777,1.825-1.204,3.709-1.281,5.649H426.75z"/>
<path fill="#ABC681" d="M0,38.931c1.263,0,2.357-0.332,3.282-0.997c0.955-0.569,1.71-1.409,2.265-2.517
	c1.202-2.279,1.803-5.003,1.803-8.168V13.333c0.061-3.401,1.008-6.046,2.843-7.936c1.742-1.858,3.867-2.787,6.373-2.787h7.978v6.354
	h-4.609c-1.506,0.064-2.581,0.871-3.227,2.422c-0.614,1.615-0.921,3.499-0.921,5.651v12.538c0,2.153-0.301,3.941-0.902,5.366
	c-0.569,1.551-1.313,2.817-2.23,3.799c-1.867,1.931-3.353,3.024-4.46,3.277v0.19c0.506,0.095,1.186,0.364,2.04,0.807
	c0.854,0.507,1.661,1.251,2.42,2.233c0.917,0.982,1.661,2.248,2.23,3.799c0.601,1.552,0.902,3.468,0.902,5.747v12.442
	c0,2.058,0.307,3.863,0.921,5.414c0.645,1.709,1.721,2.596,3.227,2.659h4.609v6.35h-7.978c-2.507-0.064-4.631-1.043-6.373-2.94
	c-1.834-1.865-2.782-4.472-2.843-7.823V57.195c0-3.382-0.601-6.163-1.803-8.344C4.315,46.576,2.465,45.406,0,45.343V38.931z"/>
<path fill="#ABC681" d="M24.204,38.931c1.263,0,2.357-0.332,3.282-0.997c0.955-0.569,1.71-1.409,2.265-2.517
	c1.202-2.279,1.803-5.003,1.803-8.168V13.333c0.061-3.401,1.008-6.046,2.843-7.936c1.742-1.858,3.867-2.787,6.373-2.787h7.978v6.354
	H44.14c-1.506,0.064-2.581,0.871-3.227,2.422c-0.614,1.615-0.921,3.499-0.921,5.651v12.538c0,2.153-0.301,3.941-0.902,5.366
	c-0.569,1.551-1.313,2.817-2.23,3.799c-1.867,1.931-3.353,3.024-4.46,3.277v0.19c0.506,0.095,1.186,0.364,2.04,0.807
	c0.854,0.507,1.661,1.251,2.42,2.233c0.917,0.982,1.661,2.248,2.23,3.799c0.601,1.552,0.902,3.468,0.902,5.747v12.442
	c0,2.058,0.307,3.863,0.921,5.414c0.645,1.709,1.721,2.596,3.227,2.659h4.609v6.35h-7.978c-2.507-0.064-4.631-1.043-6.373-2.94
	c-1.834-1.865-2.782-4.472-2.843-7.823V57.195c0-3.382-0.601-6.163-1.803-8.344c-1.233-2.275-3.082-3.445-5.547-3.508V38.931z"/>
<path fill="#ABC681" d="M504.47,45.338c-1.263,0-2.357,0.332-3.282,0.997c-0.955,0.569-1.71,1.409-2.265,2.517
	c-1.202,2.279-1.803,5.003-1.803,8.168v13.915c-0.061,3.401-1.008,6.046-2.843,7.936c-1.742,1.858-3.867,2.787-6.373,2.787h-7.978
	v-6.354h4.609c1.506-0.064,2.581-0.871,3.227-2.422c0.615-1.615,0.921-3.499,0.921-5.651V54.693c0-2.153,0.301-3.941,0.902-5.366
	c0.569-1.551,1.313-2.817,2.23-3.799c1.867-1.931,3.353-3.024,4.46-3.277v-0.19c-0.506-0.095-1.186-0.364-2.04-0.807
	c-0.854-0.507-1.661-1.251-2.42-2.233c-0.917-0.982-1.661-2.248-2.23-3.799c-0.601-1.552-0.902-3.468-0.902-5.747V17.033
	c0-2.058-0.307-3.863-0.921-5.414c-0.645-1.709-1.721-2.596-3.227-2.659h-4.609V2.61h7.978c2.507,0.064,4.631,1.043,6.373,2.94
	c1.834,1.865,2.782,4.472,2.843,7.823v13.702c0,3.382,0.601,6.163,1.803,8.344c1.233,2.275,3.082,3.445,5.547,3.508V45.338z"/>
<path fill="#ABC681" d="M480.266,45.338c-1.263,0-2.357,0.332-3.282,0.997c-0.955,0.569-1.71,1.409-2.265,2.517
	c-1.202,2.279-1.803,5.003-1.803,8.168v13.915c-0.061,3.401-1.008,6.046-2.843,7.936c-1.742,1.858-3.867,2.787-6.373,2.787h-7.978
	v-6.354h4.609c1.506-0.064,2.581-0.871,3.227-2.422c0.614-1.615,0.921-3.499,0.921-5.651V54.693c0-2.153,0.301-3.941,0.902-5.366
	c0.569-1.551,1.313-2.817,2.23-3.799c1.867-1.931,3.353-3.024,4.46-3.277v-0.19c-0.506-0.095-1.186-0.364-2.04-0.807
	c-0.854-0.507-1.661-1.251-2.42-2.233c-0.917-0.982-1.661-2.248-2.23-3.799c-0.601-1.552-0.902-3.468-0.902-5.747V17.033
	c0-2.058-0.307-3.863-0.921-5.414c-0.645-1.709-1.721-2.596-3.227-2.659h-4.609V2.61h7.978c2.507,0.064,4.631,1.043,6.373,2.94
	c1.834,1.865,2.782,4.472,2.843,7.823v13.702c0,3.382,0.601,6.163,1.803,8.344c1.233,2.275,3.082,3.445,5.547,3.508V45.338z"/>
</svg>
